<?xml version="1.0" encoding="UTF-8" standalone="no"?>
<!DOCTYPE svg PUBLIC "-//W3C//DTD SVG 1.1//EN"
 "http://www.w3.org/Graphics/SVG/1.1/DTD/svg11.dtd">
<!-- Generated by graphviz version 9.0.0 (20230911.1827)
 -->
<!-- Title: Derivation graph Pages: 1 -->
<svg width="1483pt" height="398pt"
 viewBox="0.00 0.00 1482.75 398.00" xmlns="http://www.w3.org/2000/svg" xmlns:xlink="http://www.w3.org/1999/xlink">
<g id="graph0" class="graph" transform="scale(1 1) rotate(0) translate(4 394)">
<title>Derivation graph</title>
<polygon fill="white" stroke="none" points="-4,4 -4,-394 1478.75,-394 1478.75,4 -4,4"/>
<!-- (MUn, EnvUn, MF, EnvF) -->
<g id="node1" class="node">
<title>(MUn, EnvUn, MF, EnvF)</title>
<ellipse fill="none" stroke="black" cx="442" cy="-372" rx="111.74" ry="18"/>
<text text-anchor="middle" x="442" y="-366.95" font-family="Times,serif" font-size="14.00">(MUn, EnvUn, MF, EnvF)</text>
</g>
<!-- (MUn, EnvUn, VF, VEnv2) -->
<g id="node2" class="node">
<title>(MUn, EnvUn, VF, VEnv2)</title>
<ellipse fill="none" stroke="black" cx="375" cy="-106.5" rx="114.82" ry="18"/>
<text text-anchor="middle" x="375" y="-101.45" font-family="Times,serif" font-size="14.00">(MUn, EnvUn, VF, VEnv2)</text>
</g>
<!-- (MUn, EnvUn, MF, EnvF)&#45;&gt;(MUn, EnvUn, VF, VEnv2) -->
<g id="edge1" class="edge">
<title>(MUn, EnvUn, MF, EnvF)&#45;&gt;(MUn, EnvUn, VF, VEnv2)</title>
<path fill="none" stroke="black" d="M437.6,-353.71C426.29,-309.23 396.1,-190.5 382.2,-135.8"/>
<polygon fill="black" stroke="black" points="385.64,-135.15 379.79,-126.32 378.86,-136.87 385.64,-135.15"/>
<text text-anchor="middle" x="473.75" y="-234.2" font-family="Times,serif" font-size="14.00">(mEnvF, (nFM&#45;1)*rM)</text>
</g>
<!-- (MUn, EnvUn, VUn, VEnvUn) -->
<g id="node3" class="node">
<title>(MUn, EnvUn, VUn, VEnvUn)</title>
<ellipse fill="none" stroke="black" cx="636" cy="-18" rx="128.12" ry="18"/>
<text text-anchor="middle" x="636" y="-12.95" font-family="Times,serif" font-size="14.00">(MUn, EnvUn, VUn, VEnvUn)</text>
</g>
<!-- (MUn, EnvUn, MF, EnvF)&#45;&gt;(MUn, EnvUn, VUn, VEnvUn) -->
<g id="edge2" class="edge">
<title>(MUn, EnvUn, MF, EnvF)&#45;&gt;(MUn, EnvUn, VUn, VEnvUn)</title>
<path fill="none" stroke="black" d="M330.18,-370.89C199.24,-367.65 0,-351.7 0,-284.5 0,-284.5 0,-284.5 0,-105.5 0,-55.27 315.54,-32.88 502.1,-24.04"/>
<polygon fill="black" stroke="black" points="502.03,-27.55 511.86,-23.58 501.71,-20.55 502.03,-27.55"/>
<text text-anchor="middle" x="66.38" y="-189.95" font-family="Times,serif" font-size="14.00">(mEnvU, (nUM&#45;1)*rM)</text>
</g>
<!-- (MUn, EnvUn, MF, EnvF)&#45;&gt;(MUn, EnvUn, VUn, VEnvUn) -->
<g id="edge4" class="edge">
<title>(MUn, EnvUn, MF, EnvF)&#45;&gt;(MUn, EnvUn, VUn, VEnvUn)</title>
<path fill="none" stroke="black" d="M366.69,-358.35C297.29,-344.49 205,-319.49 205,-284.5 205,-284.5 205,-284.5 205,-105.5 205,-44.84 371.16,-26.16 497.14,-20.72"/>
<polygon fill="black" stroke="black" points="497.07,-24.22 506.92,-20.32 496.79,-17.23 497.07,-24.22"/>
<text text-anchor="middle" x="235.75" y="-189.95" font-family="Times,serif" font-size="14.00">(mUn, rM)</text>
</g>
<!-- (MUn, EnvUn, VF, VEnv1) -->
<g id="node4" class="node">
<title>(MUn, EnvUn, VF, VEnv1)</title>
<ellipse fill="none" stroke="black" cx="1049" cy="-283.5" rx="114.82" ry="18"/>
<text text-anchor="middle" x="1049" y="-278.45" font-family="Times,serif" font-size="14.00">(MUn, EnvUn, VF, VEnv1)</text>
</g>
<!-- (MUn, EnvUn, MF, EnvF)&#45;&gt;(MUn, EnvUn, VF, VEnv1) -->
<g id="edge3" class="edge">
<title>(MUn, EnvUn, MF, EnvF)&#45;&gt;(MUn, EnvUn, VF, VEnv1)</title>
<path fill="none" stroke="black" d="M538.93,-362.79C605.05,-356.69 694.52,-347.45 773,-336 840.12,-326.2 915.83,-311.84 970.95,-300.77"/>
<polygon fill="black" stroke="black" points="971.45,-304.24 980.56,-298.83 970.06,-297.38 971.45,-304.24"/>
<text text-anchor="middle" x="897.88" y="-322.7" font-family="Times,serif" font-size="14.00">(mF, rM)</text>
</g>
<!-- (MUn, EnvUn, VF, VEnv2)&#45;&gt;(MUn, EnvUn, MF, EnvF) -->
<g id="edge10" class="edge">
<title>(MUn, EnvUn, VF, VEnv2)&#45;&gt;(MUn, EnvUn, MF, EnvF)</title>
<path fill="none" stroke="black" d="M362.24,-124.54C343.97,-151.13 314.31,-203.97 331,-247.5 346.76,-288.61 383.23,-324.63 410.08,-347"/>
<polygon fill="black" stroke="black" points="407.63,-349.51 417.6,-353.09 412.04,-344.08 407.63,-349.51"/>
<text text-anchor="middle" x="364" y="-234.2" font-family="Times,serif" font-size="14.00">(vEnvF, rV)</text>
</g>
<!-- (MUn, EnvUn, VF, VEnv2)&#45;&gt;(MUn, EnvUn, VF, VEnv2) -->
<g id="edge8" class="edge">
<title>(MUn, EnvUn, VF, VEnv2)&#45;&gt;(MUn, EnvUn, VF, VEnv2)</title>
<path fill="none" stroke="black" d="M478.27,-114.72C505.35,-114.23 525.82,-111.49 525.82,-106.5 525.82,-102.23 510.84,-99.61 489.55,-98.63"/>
<polygon fill="black" stroke="black" points="489.88,-95.14 479.78,-98.33 489.67,-102.14 489.88,-95.14"/>
<text text-anchor="middle" x="562.57" y="-101.45" font-family="Times,serif" font-size="14.00">(mEnvF, rM)</text>
</g>
<!-- (MUn, EnvUn, VF, VEnv2)&#45;&gt;(MUn, EnvUn, VUn, VEnvUn) -->
<g id="edge9" class="edge">
<title>(MUn, EnvUn, VF, VEnv2)&#45;&gt;(MUn, EnvUn, VUn, VEnvUn)</title>
<path fill="none" stroke="black" d="M405.22,-88.87C429.39,-75.79 461.44,-58.96 475.25,-54 497.08,-46.17 521.24,-39.78 544.05,-34.71"/>
<polygon fill="black" stroke="black" points="544.61,-38.17 553.64,-32.65 543.13,-31.33 544.61,-38.17"/>
<text text-anchor="middle" x="541.38" y="-57.2" font-family="Times,serif" font-size="14.00">(mEnvU, (nUM&#45;1)*rM)</text>
</g>
<!-- (MUn, EnvUn, VF, VEnv2)&#45;&gt;(MUn, EnvUn, VUn, VEnvUn) -->
<g id="edge11" class="edge">
<title>(MUn, EnvUn, VF, VEnv2)&#45;&gt;(MUn, EnvUn, VUn, VEnvUn)</title>
<path fill="none" stroke="black" d="M367.19,-88.22C363.49,-77.15 361.44,-63.19 369.5,-54 387.03,-34.02 441.71,-24.89 497.03,-20.91"/>
<polygon fill="black" stroke="black" points="497.19,-24.41 506.94,-20.26 496.74,-17.43 497.19,-24.41"/>
<text text-anchor="middle" x="399.75" y="-57.2" font-family="Times,serif" font-size="14.00">(mUn, rM)</text>
</g>
<!-- (MUn, EnvUn, VUn, VEnvUn)&#45;&gt;(MUn, EnvUn, MF, EnvF) -->
<g id="edge5" class="edge">
<title>(MUn, EnvUn, VUn, VEnvUn)&#45;&gt;(MUn, EnvUn, MF, EnvF)</title>
<path fill="none" stroke="black" d="M630.3,-36.3C623.3,-57.3 610.89,-93.72 599,-124.5 577.61,-179.86 578.14,-196.97 547,-247.5 524.12,-284.63 490.46,-322.06 467.46,-345.83"/>
<polygon fill="black" stroke="black" points="465.07,-343.26 460.57,-352.85 470.07,-348.16 465.07,-343.26"/>
<text text-anchor="middle" x="607" y="-189.95" font-family="Times,serif" font-size="14.00">(vUn, rV)</text>
</g>
<!-- (MUn, EnvUn, VUn, VEnvUn)&#45;&gt;(MUn, EnvUn, VUn, VEnvUn) -->
<g id="edge6" class="edge">
<title>(MUn, EnvUn, VUn, VEnvUn)&#45;&gt;(MUn, EnvUn, VUn, VEnvUn)</title>
<path fill="none" stroke="black" d="M761.58,-21.91C784.25,-21.41 800.12,-20.11 800.12,-18 800.12,-16.26 789.24,-15.06 772.62,-14.42"/>
<polygon fill="black" stroke="black" points="773.19,-10.93 763.09,-14.13 772.98,-17.93 773.19,-10.93"/>
<text text-anchor="middle" x="866.5" y="-12.95" font-family="Times,serif" font-size="14.00">(mEnvU, (nUM&#45;1)*rM)</text>
</g>
<!-- (MUn, EnvUn, VUn, VEnvUn)&#45;&gt;(MUn, EnvUn, VUn, VEnvUn) -->
<g id="edge7" class="edge">
<title>(MUn, EnvUn, VUn, VEnvUn)&#45;&gt;(MUn, EnvUn, VUn, VEnvUn)</title>
<path fill="none" stroke="black" d="M752.98,-25.64C838.41,-27.63 932.87,-25.09 932.87,-18 932.87,-11.22 846.53,-8.6 764.29,-10.12"/>
<polygon fill="black" stroke="black" points="764.42,-6.62 754.49,-10.33 764.57,-13.62 764.42,-6.62"/>
<text text-anchor="middle" x="963.62" y="-12.95" font-family="Times,serif" font-size="14.00">(mUn, rM)</text>
</g>
<!-- (MUn, EnvUn, VF, VEnv1)&#45;&gt;(MUn, EnvUn, VUn, VEnvUn) -->
<g id="edge12" class="edge">
<title>(MUn, EnvUn, VF, VEnv1)&#45;&gt;(MUn, EnvUn, VUn, VEnvUn)</title>
<path fill="none" stroke="black" d="M1162.95,-281.21C1269.68,-275.41 1405.87,-253.48 1356,-177 1281.99,-63.48 1208.4,-87.16 1077,-54 1020.68,-39.79 876.93,-30.15 768.75,-24.64"/>
<polygon fill="black" stroke="black" points="769.08,-21.16 758.91,-24.15 768.73,-28.15 769.08,-21.16"/>
<text text-anchor="middle" x="1408.38" y="-145.7" font-family="Times,serif" font-size="14.00">(mEnvU, (nUM&#45;1)*rM)</text>
</g>
<!-- (MUn, EnvUn, VF, VEnv1)&#45;&gt;(MUn, EnvUn, VUn, VEnvUn) -->
<g id="edge15" class="edge">
<title>(MUn, EnvUn, VF, VEnv1)&#45;&gt;(MUn, EnvUn, VUn, VEnvUn)</title>
<path fill="none" stroke="black" d="M1047.2,-265.1C1042.27,-226.81 1024.93,-134.92 969,-88.5 935.6,-60.78 830.77,-41.98 747.54,-30.99"/>
<polygon fill="black" stroke="black" points="748.08,-27.53 737.72,-29.72 747.18,-34.48 748.08,-27.53"/>
<text text-anchor="middle" x="1048.75" y="-145.7" font-family="Times,serif" font-size="14.00">(mUn, rM)</text>
</g>
<!-- (MUn, EnvUn, VF, EnvF) -->
<g id="node5" class="node">
<title>(MUn, EnvUn, VF, EnvF)</title>
<ellipse fill="none" stroke="black" cx="806" cy="-195" rx="109.19" ry="18"/>
<text text-anchor="middle" x="806" y="-189.95" font-family="Times,serif" font-size="14.00">(MUn, EnvUn, VF, EnvF)</text>
</g>
<!-- (MUn, EnvUn, VF, VEnv1)&#45;&gt;(MUn, EnvUn, VF, EnvF) -->
<g id="edge13" class="edge">
<title>(MUn, EnvUn, VF, VEnv1)&#45;&gt;(MUn, EnvUn, VF, EnvF)</title>
<path fill="none" stroke="black" d="M1004.15,-266.53C963.82,-252.18 904.45,-231.04 861.21,-215.65"/>
<polygon fill="black" stroke="black" points="862.61,-212.44 852.02,-212.38 860.26,-219.03 862.61,-212.44"/>
<text text-anchor="middle" x="971.12" y="-234.2" font-family="Times,serif" font-size="14.00">(vF, rV)</text>
</g>
<!-- (MUn, EnvUn, MF, VEnv1) -->
<g id="node6" class="node">
<title>(MUn, EnvUn, MF, VEnv1)</title>
<ellipse fill="none" stroke="black" cx="1221" cy="-195" rx="117.37" ry="18"/>
<text text-anchor="middle" x="1221" y="-189.95" font-family="Times,serif" font-size="14.00">(MUn, EnvUn, MF, VEnv1)</text>
</g>
<!-- (MUn, EnvUn, VF, VEnv1)&#45;&gt;(MUn, EnvUn, MF, VEnv1) -->
<g id="edge14" class="edge">
<title>(MUn, EnvUn, VF, VEnv1)&#45;&gt;(MUn, EnvUn, MF, VEnv1)</title>
<path fill="none" stroke="black" d="M1082.16,-265.82C1109.41,-252.12 1148.2,-232.61 1177.86,-217.69"/>
<polygon fill="black" stroke="black" points="1179.22,-220.93 1186.59,-213.31 1176.08,-214.67 1179.22,-220.93"/>
<text text-anchor="middle" x="1183" y="-234.2" font-family="Times,serif" font-size="14.00">(vEnvF, rV)</text>
</g>
<!-- (MUn, EnvUn, VF, EnvF)&#45;&gt;(MUn, EnvUn, MF, EnvF) -->
<g id="edge18" class="edge">
<title>(MUn, EnvUn, VF, EnvF)&#45;&gt;(MUn, EnvUn, MF, EnvF)</title>
<path fill="none" stroke="black" d="M789.49,-212.9C759.24,-242.8 691.6,-304.82 622,-336 597.98,-346.76 570.69,-354.23 544.76,-359.4"/>
<polygon fill="black" stroke="black" points="544.41,-355.9 535.23,-361.19 545.71,-362.78 544.41,-355.9"/>
<text text-anchor="middle" x="762" y="-278.45" font-family="Times,serif" font-size="14.00">(vEnvF, rV)</text>
</g>
<!-- (MUn, EnvUn, VF, EnvF)&#45;&gt;(MUn, EnvUn, VF, VEnv2) -->
<g id="edge16" class="edge">
<title>(MUn, EnvUn, VF, EnvF)&#45;&gt;(MUn, EnvUn, VF, VEnv2)</title>
<path fill="none" stroke="black" d="M738.66,-180.48C661.89,-165.08 536.5,-139.91 454.87,-123.53"/>
<polygon fill="black" stroke="black" points="455.63,-120.11 445.13,-121.58 454.25,-126.98 455.63,-120.11"/>
<text text-anchor="middle" x="692.75" y="-145.7" font-family="Times,serif" font-size="14.00">(mEnvF, (nFM&#45;1)*rM)</text>
</g>
<!-- (MUn, EnvUn, VF, EnvF)&#45;&gt;(MUn, EnvUn, VUn, VEnvUn) -->
<g id="edge17" class="edge">
<title>(MUn, EnvUn, VF, EnvF)&#45;&gt;(MUn, EnvUn, VUn, VEnvUn)</title>
<path fill="none" stroke="black" d="M823.42,-176.91C827.72,-171.62 831.73,-165.46 834,-159 836.43,-152.08 836.13,-149.52 834,-142.5 825.64,-114.89 817.48,-109.77 798,-88.5 781.45,-70.43 776.72,-65.34 755,-54 742.15,-47.29 727.82,-41.69 713.69,-37.08"/>
<polygon fill="black" stroke="black" points="714.98,-33.81 704.39,-34.19 712.9,-40.5 714.98,-33.81"/>
<text text-anchor="middle" x="893.38" y="-101.45" font-family="Times,serif" font-size="14.00">(mEnvU, (nUM&#45;1)*rM)</text>
</g>
<!-- (MUn, EnvUn, VF, EnvF)&#45;&gt;(MUn, EnvUn, VUn, VEnvUn) -->
<g id="edge19" class="edge">
<title>(MUn, EnvUn, VF, EnvF)&#45;&gt;(MUn, EnvUn, VUn, VEnvUn)</title>
<path fill="none" stroke="black" d="M795.8,-176.99C788.57,-166.04 778.03,-152.11 766,-142.5 751.24,-130.71 742.57,-135.88 727.5,-124.5 719.3,-118.31 681.86,-74.08 657.49,-44.89"/>
<polygon fill="black" stroke="black" points="660.45,-42.98 651.36,-37.54 655.07,-47.46 660.45,-42.98"/>
<text text-anchor="middle" x="757.75" y="-101.45" font-family="Times,serif" font-size="14.00">(mUn, rM)</text>
</g>
</g>
</svg>
